HIERARCHY
ROOT Hips
{
  OFFSET 5.80788e-005 67.184 3.4734
  CHANNELS 6 Xposition Yposition Zposition Zrotation Xrotation Yrotation
  JOINT Chest
  {
    OFFSET 0 8.7983 -4.7612
    CHANNELS 6 Xposition Yposition Zposition Zrotation Xrotation Yrotation
    JOINT Chest2
    {
      OFFSET 0 8.0291 0.4195
      CHANNELS 6 Xposition Yposition Zposition Zrotation Xrotation Yrotation
      JOINT Chest3
      {
        OFFSET 0 9.9351 -2.2114
        CHANNELS 6 Xposition Yposition Zposition Zrotation Xrotation Yrotation
        JOINT Neck
        {
          OFFSET 0 22.3885 -0.4656
          CHANNELS 6 Xposition Yposition Zposition Zrotation Xrotation Yrotation
          JOINT Head
          {
            OFFSET -0.0001 12.643 3.4389
            CHANNELS 6 Xposition Yposition Zposition Zrotation Xrotation Yrotation
            End Site
            {
              OFFSET 0.0001 17.6655 0.5274
            }
          }
        }
        JOINT LeftCollar
        {
          OFFSET 2.2603 21.606 7.4023
          CHANNELS 6 Xposition Yposition Zposition Zrotation Xrotation Yrotation
          JOINT LeftShoulder
          {
            OFFSET 13.5163 -1.1332 -5.0146
            CHANNELS 6 Xposition Yposition Zposition Zrotation Xrotation Yrotation
            JOINT LeftElbow
            {
              OFFSET -0.0995 -28.05 -0.2431
              CHANNELS 6 Xposition Yposition Zposition Zrotation Xrotation Yrotation
              JOINT LeftWrist
              {
                OFFSET 0.0679 -23.3996 -0.1402
                CHANNELS 6 Xposition Yposition Zposition Zrotation Xrotation Yrotation
                JOINT LeftFinger1
                {
                  OFFSET 0.7932 -9.069 2.5189
                  CHANNELS 6 Xposition Yposition Zposition Zrotation Xrotation Yrotation
                  JOINT LeftFinger11
                  {
                    OFFSET -0.8272 -3.3923 0.5977
                    CHANNELS 6 Xposition Yposition Zposition Zrotation Xrotation Yrotation
                    JOINT LeftFinger12
                    {
                      OFFSET -0.5649 -2.3158 0.4082
                      CHANNELS 6 Xposition Yposition Zposition Zrotation Xrotation Yrotation
                      End Site
                      {
                        OFFSET -0.4919 -1.6479 0.2673
                      }
                    }
                  }
                }
                JOINT LeftFinger2
                {
                  OFFSET 0.9159 -9.2044 0.2193
                  CHANNELS 6 Xposition Yposition Zposition Zrotation Xrotation Yrotation
                  JOINT LeftFinger21
                  {
                    OFFSET 0.0117 -4.1944 -0.0248
                    CHANNELS 6 Xposition Yposition Zposition Zrotation Xrotation Yrotation
                    JOINT LeftFinger22
                    {
                      OFFSET 0.0071 -2.3249 -0.0142
                      CHANNELS 6 Xposition Yposition Zposition Zrotation Xrotation Yrotation
                      End Site
                      {
                        OFFSET -0.1475 -2.0882 0.0028
                      }
                    }
                  }
                }
                JOINT LeftFinger3
                {
                  OFFSET 0.6113 -8.7231 -2.0637
                  CHANNELS 6 Xposition Yposition Zposition Zrotation Xrotation Yrotation
                  JOINT LeftFinger31
                  {
                    OFFSET -0.1927 -3.8059 -0.2383
                    CHANNELS 6 Xposition Yposition Zposition Zrotation Xrotation Yrotation
                    JOINT LeftFinger32
                    {
                      OFFSET -0.1091 -2.1688 -0.1362
                      CHANNELS 6 Xposition Yposition Zposition Zrotation Xrotation Yrotation
                      End Site
                      {
                        OFFSET -0.2358 -1.9176 -0.0906
                      }
                    }
                  }
                }
                JOINT LeftFinger4
                {
                  OFFSET -0.6151 -8.0947 -3.5641
                  CHANNELS 6 Xposition Yposition Zposition Zrotation Xrotation Yrotation
                  JOINT LeftFinger41
                  {
                    OFFSET -0.4882 -2.341 -0.6462
                    CHANNELS 6 Xposition Yposition Zposition Zrotation Xrotation Yrotation
                    JOINT LeftFinger42
                    {
                      OFFSET -0.3575 -1.7167 -0.4742
                      CHANNELS 6 Xposition Yposition Zposition Zrotation Xrotation Yrotation
                      End Site
                      {
                        OFFSET -0.4187 -1.5237 -0.3496
                      }
                    }
                  }
                }
                JOINT LeftFinger0
                {
                  OFFSET -1.42 -1.8761 1.4223
                  CHANNELS 6 Xposition Yposition Zposition Zrotation Xrotation Yrotation
                  JOINT LeftFinger01
                  {
                    OFFSET -1.1471 -3.4929 2.6334
                    CHANNELS 6 Xposition Yposition Zposition Zrotation Xrotation Yrotation
                    JOINT LeftFinger02
                    {
                      OFFSET -0.823 -2.3 1.6571
                      CHANNELS 6 Xposition Yposition Zposition Zrotation Xrotation Yrotation
                      End Site
                      {
                        OFFSET -0.5822 -1.6914 1.1582
                      }
                    }
                  }
                }
              }
            }
          }
        }
        JOINT RightCollar
        {
          OFFSET -2.2603 21.606 7.4023
          CHANNELS 6 Xposition Yposition Zposition Zrotation Xrotation Yrotation
          JOINT RightShoulder
          {
            OFFSET -13.5187 -1.1334 -5.0155
            CHANNELS 6 Xposition Yposition Zposition Zrotation Xrotation Yrotation
            JOINT RightElbow
            {
              OFFSET 0.0994 -28.0499 -0.2431
              CHANNELS 6 Xposition Yposition Zposition Zrotation Xrotation Yrotation
              JOINT RightWrist
              {
                OFFSET -0.0679 -23.3996 -0.1402
                CHANNELS 6 Xposition Yposition Zposition Zrotation Xrotation Yrotation
                JOINT RightFinger1
                {
                  OFFSET -0.7932 -9.0691 2.5189
                  CHANNELS 6 Xposition Yposition Zposition Zrotation Xrotation Yrotation
                  JOINT RightFinger11
                  {
                    OFFSET 0.8272 -3.3923 0.5977
                    CHANNELS 6 Xposition Yposition Zposition Zrotation Xrotation Yrotation
                    JOINT RightFinger12
                    {
                      OFFSET 0.565 -2.3158 0.4082
                      CHANNELS 6 Xposition Yposition Zposition Zrotation Xrotation Yrotation
                      End Site
                      {
                        OFFSET 0.4919 -1.6479 0.2673
                      }
                    }
                  }
                }
                JOINT RightFinger2
                {
                  OFFSET -0.916 -9.2044 0.2193
                  CHANNELS 6 Xposition Yposition Zposition Zrotation Xrotation Yrotation
                  JOINT RightFinger21
                  {
                    OFFSET -0.0117 -4.1944 -0.0248
                    CHANNELS 6 Xposition Yposition Zposition Zrotation Xrotation Yrotation
                    JOINT RightFinger22
                    {
                      OFFSET -0.0071 -2.3249 -0.0142
                      CHANNELS 6 Xposition Yposition Zposition Zrotation Xrotation Yrotation
                      End Site
                      {
                        OFFSET 0.1475 -2.0882 0.0028
                      }
                    }
                  }
                }
                JOINT RightFinger3
                {
                  OFFSET -0.6113 -8.7231 -2.0637
                  CHANNELS 6 Xposition Yposition Zposition Zrotation Xrotation Yrotation
                  JOINT RightFinger31
                  {
                    OFFSET 0.1927 -3.8059 -0.2383
                    CHANNELS 6 Xposition Yposition Zposition Zrotation Xrotation Yrotation
                    JOINT RightFinger32
                    {
                      OFFSET 0.1091 -2.1688 -0.1362
                      CHANNELS 6 Xposition Yposition Zposition Zrotation Xrotation Yrotation
                      End Site
                      {
                        OFFSET 0.2358 -1.9176 -0.0906
                      }
                    }
                  }
                }
                JOINT RightFinger4
                {
                  OFFSET 0.6151 -8.0947 -3.564
                  CHANNELS 6 Xposition Yposition Zposition Zrotation Xrotation Yrotation
                  JOINT RightFinger41
                  {
                    OFFSET 0.4882 -2.341 -0.6462
                    CHANNELS 6 Xposition Yposition Zposition Zrotation Xrotation Yrotation
                    JOINT RightFinger42
                    {
                      OFFSET 0.3574 -1.7166 -0.4742
                      CHANNELS 6 Xposition Yposition Zposition Zrotation Xrotation Yrotation
                      End Site
                      {
                        OFFSET 0.4187 -1.5237 -0.3496
                      }
                    }
                  }
                }
                JOINT RightFinger0
                {
                  OFFSET 1.4199 -1.8761 1.4221
                  CHANNELS 6 Xposition Yposition Zposition Zrotation Xrotation Yrotation
                  JOINT RightFinger01
                  {
                    OFFSET 1.1472 -3.4929 2.6336
                    CHANNELS 6 Xposition Yposition Zposition Zrotation Xrotation Yrotation
                    JOINT RightFinger02
                    {
                      OFFSET 0.8229 -2.3 1.6571
                      CHANNELS 6 Xposition Yposition Zposition Zrotation Xrotation Yrotation
                      End Site
                      {
                        OFFSET 0.5822 -1.6914 1.1582
                      }
                    }
                  }
                }
              }
            }
          }
        }
      }
    }
  }
  JOINT RightHip
  {
    OFFSET -9.412 3.9771 -0.7758
    CHANNELS 6 Xposition Yposition Zposition Zrotation Xrotation Yrotation
    JOINT RightKnee
    {
      OFFSET -0.7531 -40.938 0
      CHANNELS 6 Xposition Yposition Zposition Zrotation Xrotation Yrotation
      JOINT RightAnkle
      {
        OFFSET 0 -40.1986 0
        CHANNELS 6 Xposition Yposition Zposition Zrotation Xrotation Yrotation
        JOINT RightToe
        {
          OFFSET 0 -4.4182 9.239
          CHANNELS 6 Xposition Yposition Zposition Zrotation Xrotation Yrotation
          End Site
          {
            OFFSET 0 0 6.1981
          }
        }
      }
    }
  }
  JOINT LeftHip
  {
    OFFSET 9.4119 3.9773 -0.7758
    CHANNELS 6 Xposition Yposition Zposition Zrotation Xrotation Yrotation
    JOINT LeftKnee
    {
      OFFSET 0.7532 -40.9383 0
      CHANNELS 6 Xposition Yposition Zposition Zrotation Xrotation Yrotation
      JOINT LeftAnkle
      {
        OFFSET 0 -40.1986 0
        CHANNELS 6 Xposition Yposition Zposition Zrotation Xrotation Yrotation
        JOINT LeftToe
        {
          OFFSET 0 -4.4182 9.239
          CHANNELS 6 Xposition Yposition Zposition Zrotation Xrotation Yrotation
          End Site
          {
            OFFSET 0 0 6.1981
          }
        }
      }
    }
  }
}
MOTION
Frames:	4
Frame Time:	0.0333333
-0.000327061 9.22519 68.1782 -0.00886773 -71.0095 179.991 0 8.7983 -4.7612 0.0287844 -2.49678 0.0462665 3.46945e-018 8.0291 0.4195 0.0596741 -4.99356 0.0939238 -3.46945e-018 9.9351 -2.2114 0.0596742 -4.99356 0.093924 0 22.3885 -0.4656 -1.43864e-006 -1.74409 -2.22752e-006 -0.0001 12.643 3.4389 -0.0512736 2.05665 -0.00917398 2.2603 21.606 7.4023 28.5332 29.78 -42.5915 13.5163 -1.1332 -5.0146 106.139 -4.48175 114.168 -0.0995 -28.05 -0.2431 -81.854 -76.4335 -40.5407 0.0679 -23.3996 -0.1402 -21.1848 -25.6054 -27.303 0.7932 -9.069 2.5189 4.77083e-015 -3.18055e-015 -9.54166e-015 -0.8272 -3.3923 0.5977 -9.54166e-015 0 -0 -0.5649 -2.3158 0.4082 4.77083e-015 6.36111e-015 -3.18055e-015 0.9159 -9.2044 0.2193 4.77083e-015 -3.18055e-015 -9.54166e-015 0.0117 -4.1944 -0.0248 -0.0128284 0.00232492 8.56653e-005 0.0071 -2.3249 -0.0142 1.59028e-015 3.18055e-015 9.54166e-015 0.6113 -8.7231 -2.0637 4.77083e-015 -3.18055e-015 -9.54166e-015 -0.1927 -3.8059 -0.2383 -0.0160504 0.00299839 0.000857549 -0.1091 -2.1688 -0.1362 -4.77083e-015 3.18055e-015 6.36111e-015 -0.6151 -8.0947 -3.5641 4.77083e-015 -3.18055e-015 -9.54166e-015 -0.4882 -2.341 -0.6462 -0.0125945 0.00312968 0.00282466 -0.3575 -1.7167 -0.4742 7.95139e-015 -3.18055e-015 9.54166e-015 -1.42 -1.8761 1.4223 4.77083e-015 -3.18055e-015 -9.54166e-015 -1.1471 -3.4929 2.6334 -9.54166e-015 0 -0 -0.823 -2.3 1.6571 4.77083e-015 6.36111e-015 -3.18055e-015 -2.2603 21.606 7.4023 -29.2785 29.541 37.491 -13.5187 -1.1334 -5.0155 -103.943 -9.28258 -115.605 0.0994 -28.0499 -0.2431 81.0096 -76.4145 39.1396 -0.0679 -23.3996 -0.1402 20.6896 -26.1394 27.0822 -0.7932 -9.0691 2.5189 9.40871e-006 3.05738e-006 3.2284e-006 0.8272 -3.3923 0.5977 3.96968e-006 -4.4531e-006 -2.52943e-006 0.565 -2.3158 0.4082 1.81301e-006 2.03513e-006 1.91927e-006 -0.916 -9.2044 0.2193 9.40871e-006 3.05738e-006 3.2284e-006 -0.0117 -4.1944 -0.0248 0.0129341 0.00230748 -8.7746e-005 -0.0071 -2.3249 -0.0142 1.81244e-006 -1.73796e-008 1.91935e-006 -0.6113 -8.7231 -2.0637 9.40871e-006 3.05738e-006 3.2284e-006 0.1927 -3.8059 -0.2383 0.0163501 0.00303157 -0.000873743 0.1091 -2.1688 -0.1362 7.43151e-007 5.57214e-006 -1.40531e-006 0.6151 -8.0947 -3.564 9.40871e-006 3.05738e-006 3.2284e-006 0.4882 -2.341 -0.6462 0.0145902 0.00367972 -0.00327261 0.3574 -1.7166 -0.4742 -7.43186e-007 1.47852e-006 1.40527e-006 1.4199 -1.8761 1.4221 9.40871e-006 3.05738e-006 3.2284e-006 1.1472 -3.4929 2.6336 3.96968e-006 -4.4531e-006 -2.52943e-006 0.8229 -2.3 1.6571 1.81301e-006 2.03513e-006 1.91927e-006 -9.412 3.9771 -0.7758 -94.7009 -33.2313 -83.1676 -0.7531 -40.938 -7.10543e-015 176.927 43.2229 177.748 0 -40.1986 -1.42109e-014 -6.67094 10.0464 -3.41093 0 -4.4182 9.239 1.86447e-006 -2.07407e-006 1.03181e-005 9.4119 3.9773 -0.7758 94.7036 -33.2406 83.1525 0.7532 -40.9383 7.10543e-015 -176.888 43.2243 -177.793 7.10543e-015 -40.1986 0 6.65021 10.0527 3.42633 0 -4.4182 9.239 1.7952e-005 3.86704e-006 -1.88842e-006 
-0.000322369 9.18539 68.2817 -0.00886773 -71.0095 179.991 4.33681e-019 8.7983 -4.7612 0.029256 -2.47932 0.0463732 0 8.0291 0.4195 0.0606079 -4.95863 0.0941473 1.38778e-017 9.9351 -2.2114 0.0606079 -4.95862 0.0941474 -2.77556e-017 22.3885 -0.4656 -8.13784e-007 -2.23462 -1.23415e-006 -0.0001 12.643 3.4389 -0.051339 1.65681 -0.00912486 2.2603 21.606 7.4023 28.821 29.2245 -42.3321 13.5163 -1.1332 -5.0146 105.997 -4.28364 114.192 -0.0995 -28.05 -0.2431 -80.289 -76.4991 -39.0023 0.0679 -23.3996 -0.1402 -21.0288 -25.6026 -26.8018 0.7932 -9.06901 2.5189 4.77083e-015 0 -0 -0.827199 -3.3923 0.5977 -4.77083e-015 -3.18055e-015 -0 -0.5649 -2.3158 0.4082 3.18055e-015 -6.36111e-015 -6.36111e-015 0.915899 -9.20441 0.2193 4.77083e-015 0 -0 0.0117 -4.1944 -0.0248 -0.0128101 0.00232419 8.77968e-005 0.0071 -2.3249 -0.0142 1.59028e-014 -1.27222e-014 -6.36111e-015 0.6113 -8.72311 -2.0637 4.77083e-015 0 -0 -0.1927 -3.8059 -0.2383 -0.0160642 0.00299048 0.00085869 -0.1091 -2.1688 -0.1362 -6.36111e-015 6.36111e-015 3.18055e-015 -0.6151 -8.0947 -3.5641 4.77083e-015 0 -0 -0.4882 -2.341 -0.6462 -0.0125801 0.00311423 0.00282897 -0.3575 -1.7167 -0.4742 -6.36111e-015 -6.36111e-015 -0 -1.42 -1.8761 1.4223 4.77083e-015 0 -0 -1.1471 -3.4929 2.6334 -4.77083e-015 -3.18055e-015 -0 -0.822999 -2.3 1.6571 3.18055e-015 -6.36111e-015 -6.36111e-015 -2.2603 21.606 7.4023 -29.5715 28.988 37.2247 -13.5187 -1.1334 -5.0155 -103.794 -9.09328 -115.62 0.0994 -28.0499 -0.2431 79.4488 -76.4696 37.602 -0.0679 -23.3996 -0.1402 20.4128 -26.1148 26.5881 -0.7932 -9.0691 2.5189 -4.77083e-015 -3.18055e-015 6.36111e-015 0.8272 -3.3923 0.5977 -1.11319e-014 3.18055e-015 -0 0.565 -2.3158 0.4082 3.18055e-015 0 3.18055e-015 -0.916 -9.2044 0.2193 -4.77083e-015 -3.18055e-015 6.36111e-015 -0.0117 -4.1944 -0.0248 0.0129571 0.00231811 -8.33433e-005 -0.0071 -2.3249 -0.0142 -3.18055e-015 3.18055e-015 -3.18055e-015 -0.6113 -8.7231 -2.0637 -4.77083e-015 -3.18055e-015 6.36111e-015 0.1927 -3.8059 -0.2383 0.0163429 0.00303563 -0.000873876 0.1091 -2.1688 -0.1362 4.77083e-015 3.18055e-015 -3.18055e-015 0.6151 -8.0947 -3.564 -4.77083e-015 -3.18055e-015 6.36111e-015 0.4882 -2.341 -0.6462 0.0145714 0.00367806 -0.00326044 0.3574 -1.7166 -0.4742 3.18055e-015 6.36111e-015 -1.59028e-014 1.4199 -1.8761 1.4221 -4.77083e-015 -3.18055e-015 6.36111e-015 1.1472 -3.4929 2.6336 -1.11319e-014 3.18055e-015 -0 0.8229 -2.3 1.6571 3.18055e-015 0 3.18055e-015 -9.412 3.9771 -0.7758 -94.9242 -33.2103 -83.2893 -0.7531 -40.938 -7.10543e-015 176.927 43.227 177.751 0 -40.1986 0 -6.67054 10.0523 -3.4093 -1.77636e-015 -4.4182 9.239 -5.25696e-006 9.06456e-006 -6.91796e-006 9.4119 3.9773 -0.7758 94.9268 -33.2201 83.2746 0.7532 -40.9383 -7.10543e-015 -176.888 43.2282 -177.795 -3.55271e-015 -40.1986 0 6.64983 10.0585 3.42468 8.88178e-016 -4.4182 9.239 7.74687e-007 -2.35562e-006 -8.01103e-006 
-0.00031846 9.1456 68.3853 -0.00886773 -71.0095 179.991 4.33681e-019 8.7983 -4.7612 0.0297216 -2.46181 0.0464753 1.73472e-018 8.0291 0.4195 0.0615291 -4.92363 0.0943607 -3.46945e-018 9.9351 -2.2114 0.0615292 -4.92362 0.0943608 -4.16334e-017 22.3885 -0.4656 1.06841e-007 -2.7254 2.22753e-007 -0.0001 12.643 3.4389 -0.0514036 1.25697 -0.00908049 2.2603 21.606 7.4023 29.1103 28.6699 -42.0708 13.5163 -1.1332 -5.0146 105.855 -4.08571 114.216 -0.0995 -28.05 -0.2431 -78.7111 -76.5556 -37.4511 0.0679 -23.3996 -0.1402 -20.8729 -25.5987 -26.3004 0.7932 -9.069 2.5189 1.59028e-015 3.18055e-015 -9.54166e-015 -0.8272 -3.3923 0.5977 -7.95139e-015 -3.18055e-015 -6.36111e-015 -0.5649 -2.3158 0.4082 3.18055e-015 -6.36111e-015 -3.18055e-015 0.9159 -9.2044 0.2193 1.59028e-015 3.18055e-015 -9.54166e-015 0.0117 -4.1944 -0.0248 -0.0128108 0.00232516 8.5917e-005 0.0071 -2.3249 -0.0142 6.2185e-006 1.90447e-006 3.74136e-006 0.6113 -8.7231 -2.0637 1.59028e-015 3.18055e-015 -9.54166e-015 -0.1927 -3.8059 -0.2383 -0.016055 0.00299371 0.000857709 -0.1091 -2.1688 -0.1362 7.95139e-015 6.36111e-015 -0 -0.6151 -8.0947 -3.5641 1.59028e-015 3.18055e-015 -9.54166e-015 -0.4882 -2.341 -0.6462 -0.012594 0.00312754 0.00283218 -0.3575 -1.7167 -0.4742 0 6.36111e-015 -0 -1.42 -1.8761 1.4223 1.59028e-015 3.18055e-015 -9.54166e-015 -1.1471 -3.4929 2.6334 -7.95139e-015 -3.18055e-015 -6.36111e-015 -0.823 -2.3 1.6571 3.18055e-015 -6.36111e-015 -3.18055e-015 -2.2603 21.606 7.4023 -29.866 28.4359 36.9563 -13.5187 -1.1334 -5.0155 -103.645 -8.90348 -115.636 0.0994 -28.0499 -0.2431 77.8704 -76.5152 36.0467 -0.0679 -23.3996 -0.1402 20.1363 -26.0881 26.094 -0.7932 -9.0691 2.5189 -1.59028e-015 6.36111e-015 -3.18055e-015 0.8272 -3.3923 0.5977 -3.18055e-015 6.36111e-015 3.18055e-015 0.565 -2.3158 0.4082 -1.59028e-015 0 3.18055e-015 -0.916 -9.2044 0.2193 -1.59028e-015 6.36111e-015 -3.18055e-015 -0.0117 -4.1944 -0.0248 0.0129614 0.00232456 -8.60515e-005 -0.0071 -2.3249 -0.0142 7.95139e-015 6.36111e-015 -3.18055e-015 -0.6113 -8.7231 -2.0637 -1.59028e-015 6.36111e-015 -3.18055e-015 0.1927 -3.8059 -0.2383 0.0163426 0.00303416 -0.000872495 0.1091 -2.1688 -0.1362 -3.18055e-015 6.36111e-015 1.59028e-014 0.6151 -8.0947 -3.564 -1.59028e-015 6.36111e-015 -3.18055e-015 0.4882 -2.341 -0.6462 0.014566 0.00367422 -0.00327057 0.3574 -1.7166 -0.4742 1.041e-005 2.54727e-006 6.3114e-006 1.4199 -1.8761 1.4221 -1.59028e-015 6.36111e-015 -3.18055e-015 1.1472 -3.4929 2.6336 -3.18055e-015 6.36111e-015 3.18055e-015 0.8229 -2.3 1.6571 -1.59028e-015 0 3.18055e-015 -9.412 3.9771 -0.7758 -95.1474 -33.1887 -83.4108 -0.7531 -40.938 0 176.926 43.231 177.753 0 -40.1986 0 -6.67029 10.0582 -3.40764 0 -4.4182 9.239 1.14418e-005 -3.8608e-006 1.65266e-007 9.4119 3.9773 -0.7758 95.1499 -33.1993 83.3965 0.7532 -40.9383 -1.42109e-014 -176.887 43.2323 -177.798 0 -40.1986 -1.42109e-014 6.6495 10.0645 3.42304 -8.88178e-016 -4.4182 9.239 1.25527e-006 -1.11578e-006 1.15651e-006 
-0.000313755 9.1058 68.4888 -0.00886773 -71.0095 179.991 4.33681e-019 8.7983 -4.7612 0.0301822 -2.44434 0.0465739 1.73472e-018 8.0291 0.4195 0.0624406 -4.88867 0.0945673 3.46945e-018 9.9351 -2.2114 0.0624406 -4.88865 0.0945673 -1.38778e-017 22.3885 -0.4656 -4.59995e-007 -3.21622 -7.78425e-007 -0.0001 12.643 3.4389 -0.0514675 0.857046 -0.00904043 2.2603 21.606 7.4023 29.401 28.1164 -41.8077 13.5163 -1.1332 -5.0146 105.714 -3.88756 114.241 -0.0995 -28.05 -0.2431 -77.1187 -76.6008 -35.8852 0.0679 -23.3996 -0.1402 -20.717 -25.5934 -25.7991 0.7932 -9.069 2.5189 -2.8625e-014 6.36111e-015 -1.59028e-014 -0.8272 -3.3923 0.5977 2.48583e-006 -1.06503e-006 4.39867e-007 -0.5649 -2.3158 0.4082 -2.48583e-006 1.06503e-006 -4.39867e-007 0.9159 -9.2044 0.2193 -2.8625e-014 6.36111e-015 -1.59028e-014 0.0117 -4.1944 -0.0248 -0.0128322 0.0023324 8.30719e-005 0.0071 -2.3249 -0.0142 -5.29669e-031 9.54166e-015 3.18055e-015 0.6113 -8.7231 -2.0637 -2.8625e-014 6.36111e-015 -1.59028e-014 -0.1927 -3.8059 -0.2383 -0.0160426 0.00299612 0.000856631 -0.1091 -2.1688 -0.1362 -1.86921e-006 -2.26035e-006 -1.64943e-006 -0.6151 -8.0947 -3.5641 -2.8625e-014 6.36111e-015 -1.59028e-014 -0.4882 -2.341 -0.6462 -0.0125737 0.00311662 0.00281532 -0.3575 -1.7167 -0.4742 6.0728e-024 2.18796e-008 -1.59028e-014 -1.42 -1.8761 1.4223 -2.8625e-014 6.36111e-015 -1.59028e-014 -1.1471 -3.4929 2.6334 2.48583e-006 -1.06503e-006 4.39867e-007 -0.823 -2.3 1.6571 -2.48583e-006 1.06503e-006 -4.39867e-007 -2.2603 21.606 7.4023 -30.1621 27.885 36.6862 -13.5187 -1.1334 -5.0155 -103.495 -8.71445 -115.653 0.0994 -28.0499 -0.2431 76.2901 -76.5501 34.4897 -0.0679 -23.3996 -0.1402 19.86 -26.0592 25.6 -0.7932 -9.0691 2.5189 1.05934e-030 6.36111e-015 -9.54166e-015 0.8272 -3.3923 0.5977 3.18055e-015 3.18055e-015 -3.18055e-015 0.565 -2.3158 0.4082 -3.18055e-015 9.54166e-015 -6.36111e-015 -0.916 -9.2044 0.2193 1.05934e-030 6.36111e-015 -9.54166e-015 -0.0117 -4.1944 -0.0248 0.0129675 0.00231984 -8.78642e-005 -0.0071 -2.3249 -0.0142 -3.18055e-015 0 -3.18055e-015 -0.6113 -8.7231 -2.0637 1.05934e-030 6.36111e-015 -9.54166e-015 0.1927 -3.8059 -0.2383 0.016348 0.00303779 -0.000873221 0.1091 -2.1688 -0.1362 -1.59028e-015 -3.18055e-015 -0 0.6151 -8.0947 -3.564 1.05934e-030 6.36111e-015 -9.54166e-015 0.4882 -2.341 -0.6462 0.0145539 0.00367403 -0.00325338 0.3574 -1.7166 -0.4742 3.18055e-015 -3.18055e-015 3.18055e-015 1.4199 -1.8761 1.4221 1.05934e-030 6.36111e-015 -9.54166e-015 1.1472 -3.4929 2.6336 3.18055e-015 3.18055e-015 -3.18055e-015 0.8229 -2.3 1.6571 -3.18055e-015 9.54166e-015 -6.36111e-015 -9.412 3.9771 -0.7758 -95.3705 -33.1668 -83.5322 -0.7531 -40.938 0 176.926 43.2351 177.756 3.55271e-015 -40.1986 0 -6.6699 10.064 -3.40603 -1.77636e-015 -4.4182 9.239 1.19676e-005 1.2814e-006 4.68199e-006 9.4119 3.9773 -0.7758 95.3728 -33.178 83.5183 0.7532 -40.9383 0 -176.887 43.2363 -177.8 0 -40.1986 0 6.64915 10.0703 3.42142 0 -4.4182 9.239 1.64782e-005 1.92221e-006 4.74063e-006 
